Hanif_Medium_2_5_grf.mot
version=1
nRows=43
nColumns=19
inDegrees=yes
endheader
time	right_ground_force_vx	right_ground_force_vy	right_ground_force_vz	right_ground_force_px	right_ground_force_py	right_ground_force_pz	right_ground_torque_x	right_ground_torque_y	right_ground_torque_z	left_ground_force_vx	left_ground_force_vy	left_ground_force_vz	left_ground_force_px	left_ground_force_py	left_ground_force_pz	left_ground_torque_x	left_ground_torque_y	left_ground_torque_z
5.500000	5.548770	287.235000	6.175110	0.212425	0.000000	-1.443610	-17.901200	1.318720	3.591350	5.130020	315.896000	-9.255250	0.221961	0.000000	-0.977795	23.598700	-1.944280	6.989020
5.505000	5.523100	283.696000	6.028540	0.211458	0.000000	-1.442730	-17.927700	1.365040	3.273780	4.582100	317.147000	-9.820300	0.222240	0.000000	-0.977265	23.527400	-1.878030	7.107690
5.510000	5.945860	283.254000	5.924410	0.212661	0.000000	-1.442610	-17.932400	1.443310	3.610110	3.952470	318.304000	-9.431300	0.222447	0.000000	-0.977810	23.789200	-1.946840	7.200160
5.515000	5.830030	284.512000	4.824790	0.212413	0.000000	-1.443230	-17.834700	1.494580	3.551700	4.020670	319.464000	-10.320700	0.222979	0.000000	-0.977472	23.767200	-1.973110	7.402770
5.520000	5.977430	284.055000	4.443190	0.212584	0.000000	-1.442490	-18.015400	1.476610	3.592530	3.230520	319.790000	-10.487600	0.222922	0.000000	-0.976994	23.643500	-1.879640	7.392070
5.525000	5.477760	282.744000	4.087120	0.212361	0.000000	-1.442000	-18.071500	1.477460	3.512140	2.927180	318.768000	-10.534300	0.223647	0.000000	-0.977491	23.727100	-1.949100	7.603220
5.530000	5.695780	282.382000	3.444460	0.213151	0.000000	-1.442220	-17.988200	1.406730	3.727000	2.979430	317.248000	-10.614200	0.223643	0.000000	-0.977476	23.608700	-1.938430	7.566450
5.535000	6.188150	283.083000	3.552210	0.212150	0.000000	-1.442850	-17.848800	1.571060	3.454950	2.388580	315.892000	-10.264800	0.223956	0.000000	-0.977667	23.572100	-1.887110	7.630920
5.540000	5.822440	285.025000	3.333840	0.212116	0.000000	-1.442920	-17.953200	1.599290	3.468370	2.232560	315.290000	-9.950900	0.225838	0.000000	-0.977772	23.560800	-1.908910	8.209570
5.545000	5.911580	282.639000	2.698010	0.212624	0.000000	-1.442170	-18.013400	1.654670	3.580450	0.585407	314.012000	-9.112640	0.225631	0.000000	-0.978282	23.635600	-1.810090	8.106500
5.550000	5.782820	282.964000	2.672390	0.212729	0.000000	-1.442140	-18.044400	1.548260	3.613450	0.119378	315.366000	-8.226820	0.225872	0.000000	-0.977352	23.447400	-1.785290	8.210900
5.555000	5.463620	283.245000	1.848300	0.212691	0.000000	-1.442340	-18.008700	1.565080	3.602670	-1.094410	311.401000	-7.369750	0.226500	0.000000	-0.978343	23.469000	-1.783250	8.301010
5.560000	5.637030	282.560000	1.952230	0.212306	0.000000	-1.442740	-17.848700	1.613050	3.485910	-1.019890	313.112000	-6.942440	0.227309	0.000000	-0.978388	23.611400	-1.758100	8.595680
5.565000	5.881230	280.212000	2.379060	0.212477	0.000000	-1.442050	-17.893200	1.579440	3.506660	-2.142210	312.071000	-6.705360	0.227460	0.000000	-0.978489	23.572400	-1.778160	8.614950
5.570000	5.917460	281.143000	2.228890	0.211867	0.000000	-1.441880	-17.999600	1.587370	3.346020	-2.004270	309.827000	-6.555340	0.228538	0.000000	-0.978678	23.460300	-1.711630	8.885230
5.575000	5.857650	277.678000	2.223890	0.212676	0.000000	-1.441950	-17.762600	1.483770	3.529070	-2.531320	308.888000	-6.433810	0.228688	0.000000	-0.978390	23.304700	-1.772690	8.906020
5.580000	6.452960	280.354000	2.247980	0.212683	0.000000	-1.443050	-17.623200	1.417540	3.564100	-2.321760	306.627000	-6.367270	0.228866	0.000000	-0.978643	23.209800	-1.694000	8.893610
5.585000	6.142110	276.505000	2.024200	0.213512	0.000000	-1.441500	-17.810800	1.440660	3.744080	-2.484570	307.605000	-6.084470	0.228765	0.000000	-0.978667	23.291800	-1.648890	8.888080
5.590000	6.282970	277.079000	2.003930	0.213327	0.000000	-1.440910	-18.008800	1.514990	3.700930	-2.223780	304.767000	-5.686190	0.229735	0.000000	-0.979006	23.179000	-1.681950	9.100010
5.595000	6.577010	278.751000	1.921830	0.213242	0.000000	-1.441890	-17.844200	1.520400	3.699100	-2.676520	305.080000	-5.965900	0.229825	0.000000	-0.978809	23.145000	-1.579490	9.137470
5.600000	6.754810	278.701000	1.836190	0.213664	0.000000	-1.441720	-17.886000	1.642430	3.816410	-2.748710	303.690000	-5.441940	0.230815	0.000000	-0.979471	23.242500	-1.721880	9.395840
5.605000	6.545910	276.376000	1.731070	0.213943	0.000000	-1.440220	-18.150500	1.603030	3.860890	-2.561290	303.829000	-5.453370	0.231622	0.000000	-0.979589	23.286100	-1.536290	9.641910
5.610000	6.244130	276.079000	0.835109	0.214819	0.000000	-1.441660	-17.737200	1.512530	4.094700	-2.778000	303.798000	-4.898840	0.232176	0.000000	-0.979379	23.221700	-1.606760	9.806860
5.615000	6.026090	276.675000	0.864419	0.214504	0.000000	-1.441330	-17.870900	1.416400	4.016110	-2.887990	303.637000	-4.677320	0.232460	0.000000	-0.980239	23.471000	-1.543730	9.885730
5.620000	5.595970	274.127000	0.392226	0.214828	0.000000	-1.440670	-17.886500	1.438940	4.066260	-3.471070	305.475000	-4.534530	0.232608	0.000000	-0.980304	23.637600	-1.606060	9.990840
5.625000	4.961260	273.630000	-0.070657	0.215814	0.000000	-1.440430	-17.923400	1.414060	4.326940	-3.611830	302.466000	-4.133120	0.233445	0.000000	-0.980549	23.479400	-1.544460	10.142900
5.630000	4.486910	272.641000	0.308846	0.216125	0.000000	-1.441410	-17.594000	1.316150	4.397570	-3.565740	300.455000	-4.028300	0.234289	0.000000	-0.980958	23.445400	-1.480330	10.327800
5.635000	3.886110	270.466000	0.000216	0.215822	0.000000	-1.440280	-17.758400	1.459200	4.279370	-3.519020	298.537000	-3.656900	0.234267	0.000000	-0.981052	23.324100	-1.512460	10.253400
5.640000	3.282630	271.325000	0.403288	0.215975	0.000000	-1.440320	-17.807600	1.338650	4.336200	-4.108310	301.442000	-3.206810	0.234073	0.000000	-0.979908	23.209200	-1.467080	10.291200
5.645000	3.206950	272.283000	0.646031	0.216816	0.000000	-1.440250	-17.888600	1.387720	4.581430	-4.167680	296.408000	-2.678340	0.235069	0.000000	-0.980855	23.103100	-1.453530	10.411600
5.650000	2.779370	269.975000	0.666240	0.217316	0.000000	-1.440240	-17.742300	1.227640	4.677630	-4.375860	296.584000	-2.518190	0.235937	0.000000	-0.981377	23.273600	-1.490120	10.674600
5.655000	2.937440	270.669000	0.674126	0.217181	0.000000	-1.440470	-17.724400	1.293800	4.653220	-4.934890	296.630000	-2.272680	0.235748	0.000000	-0.980444	23.005100	-1.516810	10.619000
5.660000	1.894550	267.994000	0.460740	0.217007	0.000000	-1.441020	-17.407500	1.239890	4.559590	-4.542040	294.755000	-1.863880	0.236018	0.000000	-0.981025	23.027100	-1.447840	10.628300
5.665000	2.044690	265.044000	0.485596	0.218405	0.000000	-1.441110	-17.190500	1.193420	4.880180	-5.163200	294.095000	-2.270210	0.236426	0.000000	-0.981130	23.011800	-1.462750	10.727600
5.670000	2.288590	265.061000	0.363852	0.218550	0.000000	-1.440130	-17.449600	1.222040	4.918380	-4.925240	293.408000	-2.118390	0.237360	0.000000	-0.980667	22.821200	-1.506650	10.976000
5.675000	1.836500	265.645000	0.279229	0.218559	0.000000	-1.440000	-17.524900	1.331840	4.931430	-5.559280	291.684000	-2.223140	0.237259	0.000000	-0.981319	22.882300	-1.475300	10.883100
5.680000	1.650720	264.708000	0.020487	0.218714	0.000000	-1.439670	-17.550000	1.325930	4.953820	-5.467750	292.707000	-2.410720	0.237363	0.000000	-0.980237	22.643500	-1.398590	10.952100
5.685000	1.762040	266.565000	0.324305	0.219440	0.000000	-1.440000	-17.586100	1.279990	5.183380	-5.828650	290.547000	-2.483120	0.238026	0.000000	-0.981851	22.949400	-1.418690	11.065300
5.690000	2.188670	268.569000	0.695934	0.220066	0.000000	-1.439740	-17.786700	1.355940	5.392220	-5.752820	292.592000	-2.369720	0.238951	0.000000	-0.981259	22.937000	-1.442860	11.412900
5.695000	2.439720	270.213000	0.632410	0.219742	0.000000	-1.440000	-17.823200	1.414930	5.337510	-5.970240	291.901000	-2.166390	0.239469	0.000000	-0.981706	23.017500	-1.555940	11.536600
5.700000	2.345670	271.786000	0.587482	0.220736	0.000000	-1.439660	-18.019000	1.506020	5.638750	-5.985860	290.217000	-2.125610	0.240642	0.000000	-0.982526	23.122500	-1.510390	11.810100
5.705000	2.800530	271.150000	1.331370	0.219885	0.000000	-1.439170	-18.108200	1.478080	5.398240	-5.933820	292.366000	-2.260370	0.240104	0.000000	-0.981235	22.917200	-1.602960	11.741800
5.710000	2.476740	272.305000	1.599180	0.220521	0.000000	-1.440320	-17.873800	1.413730	5.595640	-5.741100	290.578000	-2.045060	0.240484	0.000000	-0.982129	23.035900	-1.629970	11.779000
